<?xml version="1.0" encoding="iso-8859-1"?>
<!-- Generator: Adobe Illustrator 19.0.0, SVG Export Plug-In . SVG Version: 6.00 Build 0)  -->
<svg version="1.1" id="Capa_1" xmlns="http://www.w3.org/2000/svg" xmlns:xlink="http://www.w3.org/1999/xlink" x="0px" y="0px"
	 viewBox="0 0 512 512" style="enable-background:new 0 0 512 512;" xml:space="preserve">
<circle style="fill:#DFE1DF;" cx="256" cy="256" r="234.667"/>
<g>
	<path style="fill:#303C42;" d="M331.313,308.104c-5.688-5.156-11.052-10.031-15.417-15.281c-1.313-1.573-3.208-6.833-4.74-11.052
		c-6.375-17.615-17.052-47.104-55.167-47.104c-38.094,0-48.771,29.49-55.146,47.104c-1.531,4.219-3.427,9.479-4.74,11.042
		c-4.365,5.26-9.729,10.135-15.417,15.292c-14.531,13.177-31,28.115-31.354,52.479c-0.177,12.896,3.802,23.854,11.521,31.688
		c8.427,8.542,20.906,13.063,36.073,13.063c17.073,0,27.823-5.677,36.458-10.24c7.396-3.906,13.229-6.99,22.604-6.99
		c9.385,0,15.229,3.083,22.625,6.99c8.635,4.563,19.396,10.24,36.458,10.24c15.167,0,27.646-4.521,36.073-13.063
		c7.719-7.833,11.698-18.792,11.521-31.698C362.313,336.219,345.844,321.281,331.313,308.104z"/>
	<path style="fill:#303C42;" d="M180.365,289.615c7.521-7.531,11.646-18.938,11.635-32.094c0-4.677-0.531-9.531-1.583-14.427
		C184.26,214.438,162.198,192,140.177,192c-10.125,0-19.083,4.615-25.229,12.99c-5.427,7.385-8.292,17.125-8.281,28.156
		c0,4.667,0.531,9.51,1.583,14.417v0.01c6.156,28.656,28.219,51.094,50.24,51.094C166.885,298.667,174.448,295.531,180.365,289.615z
		"/>
	<path style="fill:#303C42;" d="M161.24,161.99c5.469,28.792,27.229,51.344,49.531,51.344c8.74,0,16.604-3.333,22.76-9.646
		c7.958-8.167,12.135-20.417,11.781-34.458c-0.094-3.615-0.49-7.354-1.219-11.219c-5.469-28.792-27.229-51.344-49.531-51.344
		c-8.74,0-16.604,3.333-22.76,9.646c-7.958,8.167-12.135,20.417-11.781,34.458c0.094,3.615,0.49,7.354,1.219,11.208V161.99z"/>
	<path style="fill:#303C42;" d="M397.052,204.99c-6.146-8.375-15.104-12.99-25.229-12.99c-22.021,0-44.083,22.438-50.24,51.094
		c-1.052,4.896-1.583,9.75-1.583,14.417c-0.01,13.167,4.115,24.573,11.635,32.104c5.917,5.917,13.479,9.052,21.875,9.052
		c22.021,0,44.083-22.438,50.24-51.094v-0.01c1.052-4.906,1.583-9.75,1.583-14.406C405.344,222.115,402.479,212.375,397.052,204.99z
		"/>
	<path style="fill:#303C42;" d="M301.229,213.333c22.302,0,44.063-22.552,49.531-51.344v-0.01c0.729-3.854,1.125-7.594,1.219-11.188
		c0.354-14.063-3.823-26.313-11.781-34.479c-6.156-6.313-14.021-9.646-22.76-9.646c-22.302,0-44.063,22.552-49.531,51.354
		c-0.729,3.854-1.125,7.594-1.219,11.188c-0.354,14.063,3.823,26.313,11.781,34.479C284.625,210,292.49,213.333,301.229,213.333z"/>
</g>
<path style="fill:#EE3124;" d="M256,0C114.844,0,0,114.844,0,256s114.844,256,256,256s256-114.844,256-256S397.156,0,256,0z
	 M42.667,256c0-51.151,18.125-98.126,48.249-134.918l300.003,300.003c-36.792,30.124-83.767,48.249-134.918,48.249
	C138.365,469.333,42.667,373.635,42.667,256z M421.085,390.918L121.082,90.915C157.874,60.792,204.849,42.667,256,42.667
	c117.635,0,213.333,95.698,213.333,213.333C469.333,307.151,451.208,354.126,421.085,390.918z"/>
<linearGradient id="SVGID_1_" gradientUnits="userSpaceOnUse" x1="-45.5784" y1="639.555" x2="-23.8278" y2="629.4138" gradientTransform="matrix(21.3333 0 0 -21.3333 996.3334 13791.667)">
	<stop  offset="0" style="stop-color:#FFFFFF;stop-opacity:0.2"/>
	<stop  offset="1" style="stop-color:#FFFFFF;stop-opacity:0"/>
</linearGradient>
<path style="fill:url(#SVGID_1_);" d="M256,0C114.844,0,0,114.844,0,256s114.844,256,256,256s256-114.844,256-256S397.156,0,256,0z"
	/>
<g>
</g>
<g>
</g>
<g>
</g>
<g>
</g>
<g>
</g>
<g>
</g>
<g>
</g>
<g>
</g>
<g>
</g>
<g>
</g>
<g>
</g>
<g>
</g>
<g>
</g>
<g>
</g>
<g>
</g>
</svg>
