<?xml version="1.0" encoding="iso-8859-1"?>
<!-- Generator: Adobe Illustrator 19.0.0, SVG Export Plug-In . SVG Version: 6.00 Build 0)  -->
<svg version="1.1" id="Capa_1" xmlns="http://www.w3.org/2000/svg" xmlns:xlink="http://www.w3.org/1999/xlink" x="0px" y="0px"
	 viewBox="0 0 512 512" style="enable-background:new 0 0 512 512;" xml:space="preserve">
<g>
	<g>
		<g>
			<path d="M180.365,289.615c7.521-7.531,11.646-18.938,11.635-32.094c0-4.677-0.531-9.531-1.583-14.427
				C184.26,214.438,162.198,192,140.177,192c-10.125,0-19.083,4.615-25.229,12.99c-5.427,7.385-8.292,17.125-8.281,28.156
				c0,4.667,0.531,9.51,1.583,14.417v0.01c6.156,28.656,28.219,51.094,50.24,51.094
				C166.885,298.667,174.448,295.531,180.365,289.615z"/>
			<path d="M371.823,192c-22.021,0-44.083,22.438-50.24,51.094c-1.052,4.896-1.583,9.75-1.583,14.417
				c-0.01,13.167,4.115,24.573,11.635,32.104c5.917,5.917,13.479,9.052,21.875,9.052c22.021,0,44.083-22.438,50.24-51.094v-0.01
				c1.052-4.906,1.583-9.75,1.583-14.406c0.01-11.042-2.854-20.781-8.281-28.167C390.906,196.615,381.948,192,371.823,192z"/>
			<path d="M350.76,161.99v-0.01c0.729-3.854,1.125-7.594,1.219-11.188c0.354-14.063-3.823-26.313-11.781-34.479
				c-6.156-6.313-14.021-9.646-22.76-9.646c-22.302,0-44.063,22.552-49.531,51.354c-0.729,3.854-1.125,7.594-1.219,11.188
				c-0.354,14.063,3.823,26.313,11.781,34.479c6.156,6.313,14.021,9.646,22.76,9.646C323.531,213.333,345.292,190.781,350.76,161.99
				z"/>
			<path d="M256,0C114.844,0,0,114.844,0,256s114.844,256,256,256s256-114.844,256-256S397.156,0,256,0z M256,469.333
				c-117.635,0-213.333-95.698-213.333-213.333c0-51.151,18.125-98.126,48.249-134.918l128.119,128.118
				c-9.776,9.96-14.715,22.969-18.19,32.57c-1.531,4.219-3.427,9.479-4.74,11.042c-4.365,5.26-9.729,10.135-15.417,15.292
				c-14.531,13.177-31,28.115-31.354,52.479c-0.177,12.896,3.802,23.854,11.521,31.688c8.427,8.542,20.906,13.063,36.073,13.063
				c17.073,0,27.823-5.677,36.458-10.24c7.396-3.906,13.229-6.99,22.604-6.99c9.385,0,15.229,3.083,22.625,6.99
				c8.635,4.563,19.396,10.24,36.458,10.24c15.167,0,27.646-4.521,36.073-13.063c1.835-1.862,3.426-3.927,4.832-6.126l34.94,34.94
				C354.126,451.208,307.151,469.333,256,469.333z M421.085,390.918L310.693,280.526c-5.811-16.014-15.572-40.298-44.879-44.879
				l-32.142-32.142c7.854-8.167,11.992-20.328,11.641-34.276c-0.094-3.615-0.49-7.354-1.219-11.219
				c-5.469-28.792-27.229-51.344-49.531-51.344c-8.74,0-16.604,3.333-22.76,9.646c-4.203,4.313-7.273,9.815-9.255,16.068
				l-41.465-41.465C157.874,60.792,204.849,42.667,256,42.667c117.635,0,213.333,95.698,213.333,213.333
				C469.333,307.151,451.208,354.126,421.085,390.918z"/>
		</g>
	</g>
</g>
<g>
</g>
<g>
</g>
<g>
</g>
<g>
</g>
<g>
</g>
<g>
</g>
<g>
</g>
<g>
</g>
<g>
</g>
<g>
</g>
<g>
</g>
<g>
</g>
<g>
</g>
<g>
</g>
<g>
</g>
</svg>
